# xmcd
#
# Track frame offsets:
#	150
#	14434
#	31348
#	61456
#	75503
#	89550
#	103542
#	122076
#	135837
#	143821
#	154272
#	171171
#	192360
#	209398
#	225927
#	238020
#	251009
#	266625
#	287062
#	295707
#	311037
#
# Disc length: 4339 seconds
#
# Revision: 1
# Processed by: cddbd v1.5.1PL0 Copyright (c) Steve Scherf et al.
# Submitted via: audiograbber 1.82.01
#
DISCID=2710f115
DTITLE=Розенбаум Александр - Былое и диски. Том 3. 1986 год - Золотая серия
DYEAR=1986
DGENRE=Vocal
TTITLE0=Декабристский сон
TTITLE1=Кандальная
TTITLE2=Ой, дудари, дудари (сцена на ярмарке)
TTITLE3=Удивляюсь
TTITLE4=Ох, проводи-ка меня, батя, да на войну
TTITLE5=Дай мне минуту
TTITLE6=Бабий Яр
TTITLE7=Звездопад
TTITLE8=Я часто просыпаюсь в тишине
TTITLE9=Санька Котов
TTITLE10=Кручина
TTITLE11=Размышление на прогулке
TTITLE12=Вещая судьба
TTITLE13=Жеребёнок
TTITLE14=Романс генерала Чарноты
TTITLE15=Тётя Маня
TTITLE16=Песня коня цыганских кровей
TTITLE17=Романс Най-Турса
TTITLE18=Зимняя ночь
TTITLE19=Расставание
TTITLE20=Покажите мне Москву
EXTD=
EXTT0=
EXTT1=
EXTT2=
EXTT3=
EXTT4=
EXTT5=
EXTT6=
EXTT7=
EXTT8=
EXTT9=
EXTT10=
EXTT11=
EXTT12=
EXTT13=
EXTT14=
EXTT15=
EXTT16=
EXTT17=
EXTT18=
EXTT19=
EXTT20=
PLAYORDER=
